<?xml version="1.0" encoding="UTF-8"?>
<!DOCTYPE svg PUBLIC "-//W3C//DTD SVG 1.1//EN" "http://www.w3.org/Graphics/SVG/1.1/DTD/svg11.dtd">
<svg xmlns="http://www.w3.org/2000/svg" version="1.1" width="512px" height="512px" style="shape-rendering:geometricPrecision; text-rendering:geometricPrecision; image-rendering:optimizeQuality; fill-rule:evenodd; clip-rule:evenodd" xmlns:xlink="http://www.w3.org/1999/xlink">
<g><path style="opacity:1" fill="#fefffe" d="M -0.5,-0.5 C 170.167,-0.5 340.833,-0.5 511.5,-0.5C 511.5,170.167 511.5,340.833 511.5,511.5C 494.167,511.5 476.833,511.5 459.5,511.5C 470.367,433.591 447.367,367.758 390.5,314C 357.756,285.804 319.756,269.304 276.5,264.5C 309.157,257.425 335.324,240.425 355,213.5C 378.421,172.481 375.088,133.814 345,97.5C 312.945,65.9262 274.445,53.0928 229.5,59C 191.776,64.9245 162.609,83.7578 142,115.5C 119.373,164.033 128.54,205.533 169.5,240C 187.544,253.191 207.544,261.691 229.5,265.5C 154.322,278.852 100.822,320.185 69,389.5C 52.508,428.778 47.6747,469.444 54.5,511.5C 36.1667,511.5 17.8333,511.5 -0.5,511.5C -0.5,340.833 -0.5,170.167 -0.5,-0.5 Z"/></g>
<g><path style="opacity:1" fill="#edc399" d="M 276.5,264.5 C 260.874,266.658 245.207,266.991 229.5,265.5C 207.544,261.691 187.544,253.191 169.5,240C 128.54,205.533 119.373,164.033 142,115.5C 162.609,83.7578 191.776,64.9245 229.5,59C 274.445,53.0928 312.945,65.9262 345,97.5C 375.088,133.814 378.421,172.481 355,213.5C 335.324,240.425 309.157,257.425 276.5,264.5 Z"/></g>
<g><path style="opacity:1" fill="#000000" d="M 276.5,264.5 C 319.756,269.304 357.756,285.804 390.5,314C 447.367,367.758 470.367,433.591 459.5,511.5C 324.5,511.5 189.5,511.5 54.5,511.5C 47.6747,469.444 52.508,428.778 69,389.5C 100.822,320.185 154.322,278.852 229.5,265.5C 245.207,266.991 260.874,266.658 276.5,264.5 Z"/></g>
</svg>
